<?xml version="1.0" encoding="iso-8859-1"?>
<!-- Generator: Adobe Illustrator 16.0.0, SVG Export Plug-In . SVG Version: 6.00 Build 0)  -->
<!DOCTYPE svg PUBLIC "-//W3C//DTD SVG 1.1//EN" "http://www.w3.org/Graphics/SVG/1.1/DTD/svg11.dtd">
<svg version="1.1" id="Capa_1" xmlns="http://www.w3.org/2000/svg" xmlns:xlink="http://www.w3.org/1999/xlink" x="0px" y="0px"
	 width="43.583px" height="43.583px" viewBox="0 0 43.583 43.583" style="enable-background:new 0 0 43.583 43.583;"
	 xml:space="preserve">
<g>
	<path d="M17.892,26.835l-5.044-5.044l5.043-5.044c0.976-0.977,0.976-2.56,0-3.536c-0.978-0.976-2.56-0.976-3.536,0l-5.042,5.044
		L4.268,13.21c-0.977-0.976-2.559-0.976-3.536,0c-0.976,0.976-0.976,2.559,0,3.536l5.044,5.045l-5.044,5.043
		c-0.976,0.979-0.976,2.561,0,3.536C1.22,30.859,1.86,31.103,2.5,31.103s1.28-0.244,1.768-0.732l5.044-5.044l5.042,5.044
		c0.979,0.978,2.561,0.978,3.536,0C18.868,29.396,18.868,27.813,17.892,26.835z M42.852,12.735c-0.979-0.976-2.561-0.976-3.537,0
		l-4.271,4.27l-4.271-4.271c-0.978-0.976-2.56-0.976-3.535,0c-0.977,0.977-0.977,2.559,0,3.536l5.306,5.305v7.505
		c0,1.381,1.119,2.5,2.5,2.5c1.382,0,2.5-1.119,2.5-2.5v-7.503l5.307-5.307C43.827,15.294,43.827,13.711,42.852,12.735z
		 M26.849,19.292h-1.286v-1.286c0-1.381-1.119-2.5-2.5-2.5c-1.381,0-2.5,1.119-2.5,2.5v1.286h-1.286c-1.381,0-2.5,1.119-2.5,2.5
		s1.119,2.5,2.5,2.5h1.286v1.286c0,1.381,1.119,2.5,2.5,2.5c1.381,0,2.5-1.119,2.5-2.5v-1.286h1.286c1.381,0,2.5-1.119,2.5-2.5
		S28.229,19.292,26.849,19.292z"/>
</g>
<g>
</g>
<g>
</g>
<g>
</g>
<g>
</g>
<g>
</g>
<g>
</g>
<g>
</g>
<g>
</g>
<g>
</g>
<g>
</g>
<g>
</g>
<g>
</g>
<g>
</g>
<g>
</g>
<g>
</g>
</svg>
