<?xml version="1.0" encoding="UTF-8" standalone="no"?>
<!DOCTYPE svg PUBLIC "-//W3C//DTD SVG 1.1//EN" "http://www.w3.org/Graphics/SVG/1.1/DTD/svg11.dtd">
<svg version="1.1" xmlns="http://www.w3.org/2000/svg" xmlns:xlink="http://www.w3.org/1999/xlink" preserveAspectRatio="xMidYMid meet" viewBox="63.00117647058829 63 516.0000000000002 516" width="512" height="512"><defs><path d="M87.27 250.19C87.27 263.14 97.61 273.45 110.54 273.45C124.5 273.45 236.23 273.45 250.19 273.45C263.15 273.45 273.46 263.12 273.46 250.19C273.46 236.23 273.46 124.5 273.46 110.54C273.46 97.58 263.12 87.27 250.19 87.27C236.23 87.27 124.5 87.27 110.54 87.27C97.58 87.27 87.27 97.61 87.27 110.54C87.27 138.47 87.27 236.23 87.27 250.19ZM110.54 64C124.5 64 236.23 64 250.19 64C275.89 64 296.73 84.65 296.73 110.54C296.73 124.5 296.73 236.23 296.73 250.19C296.73 275.89 276.08 296.73 250.19 296.73C236.23 296.73 124.5 296.73 110.54 296.73C84.84 296.73 64 276.07 64 250.19C64 240.88 64 194.33 64 110.54C77.77 79.51 93.28 64 110.54 64ZM87.27 529.46C87.27 542.42 97.61 552.73 110.54 552.73C124.5 552.73 236.23 552.73 250.19 552.73C263.15 552.73 273.46 542.39 273.46 529.46C273.46 515.5 273.46 403.77 273.46 389.81C273.46 376.86 263.12 366.55 250.19 366.55C236.23 366.55 124.5 366.55 110.54 366.55C97.58 366.55 87.27 376.88 87.27 389.81C87.27 417.74 87.27 515.5 87.27 529.46ZM110.54 343.27C124.5 343.27 236.23 343.27 250.19 343.27C275.89 343.27 296.73 363.93 296.73 389.81C296.73 403.77 296.73 515.5 296.73 529.46C296.73 555.16 276.08 576 250.19 576C236.23 576 124.5 576 110.54 576C84.84 576 64 555.35 64 529.46C64 520.15 64 473.6 64 389.81C77.77 358.78 93.28 343.27 110.54 343.27ZM366.55 529.46C366.55 542.42 376.89 552.73 389.81 552.73C403.78 552.73 515.5 552.73 529.46 552.73C542.42 552.73 552.73 542.39 552.73 529.46C552.73 515.5 552.73 403.77 552.73 389.81C552.73 376.86 542.39 366.55 529.46 366.55C515.5 366.55 403.78 366.55 389.81 366.55C376.86 366.55 366.55 376.88 366.55 389.81C366.55 417.74 366.55 515.5 366.55 529.46ZM389.81 343.27C403.78 343.27 515.5 343.27 529.46 343.27C555.17 343.27 576 363.93 576 389.81C576 403.77 576 515.5 576 529.46C576 555.16 555.35 576 529.46 576C515.5 576 403.78 576 389.81 576C364.11 576 343.27 555.35 343.27 529.46C343.27 520.15 343.27 473.6 343.27 389.81C357.04 358.78 372.55 343.27 389.81 343.27ZM366.55 250.19C366.55 263.14 376.89 273.45 389.81 273.45C403.78 273.45 515.5 273.45 529.46 273.45C542.42 273.45 552.73 263.12 552.73 250.19C552.73 236.23 552.73 124.5 552.73 110.54C552.73 97.58 542.39 87.27 529.46 87.27C515.5 87.27 403.78 87.27 389.81 87.27C376.86 87.27 366.55 97.61 366.55 110.54C366.55 138.47 366.55 236.23 366.55 250.19ZM389.81 64C403.78 64 515.5 64 529.46 64C555.17 64 576 84.65 576 110.54C576 124.5 576 236.23 576 250.19C576 275.89 555.35 296.73 529.46 296.73C515.5 296.73 403.78 296.73 389.81 296.73C364.11 296.73 343.27 276.07 343.27 250.19C343.27 240.88 343.27 194.33 343.27 110.54C357.04 79.51 372.55 64 389.81 64Z" id="bnkTaIXg6"></path></defs><g><g><use xlink:href="#bnkTaIXg6" opacity="1" fill="#000000" fill-opacity="1"></use><g><use xlink:href="#bnkTaIXg6" opacity="1" fill-opacity="0" stroke="#000000" stroke-width="1" stroke-opacity="0"></use></g></g></g></svg>