<?xml version="1.0" encoding="UTF-8" standalone="no"?>
<!DOCTYPE svg PUBLIC "-//W3C//DTD SVG 1.1//EN" "http://www.w3.org/Graphics/SVG/1.1/DTD/svg11.dtd">
<svg version="1.1" xmlns="http://www.w3.org/2000/svg" xmlns:xlink="http://www.w3.org/1999/xlink" preserveAspectRatio="xMidYMid meet" viewBox="65.17647058823525 29.14705882352942 515.9979545608898 515.99795456089" width="512" height="512"><defs><path d="M454.42 357.88C453.82 357.29 453.13 356.88 452.51 356.33C474.4 323.13 487.17 283.38 487.17 240.65C487.17 124.39 392.93 30.15 276.67 30.15C160.42 30.15 66.18 124.39 66.18 240.65C66.18 356.9 160.42 451.14 276.67 451.14C319.41 451.14 359.15 438.37 392.35 416.48C392.9 417.1 393.31 417.79 393.9 418.38C405.03 429.51 494.01 518.49 505.13 529.61C521.84 546.32 548.93 546.32 565.64 529.61C582.35 512.91 582.35 485.82 565.64 469.11C543.4 446.86 465.54 369 454.42 357.88ZM139.15 240.65C139.15 164.69 200.72 103.12 276.67 103.12C352.63 103.12 414.2 164.69 414.2 240.65C414.2 316.6 352.63 378.17 276.67 378.17C200.72 378.17 139.15 316.6 139.15 240.65Z" id="h1hSqM04X8"></path></defs><g><g><use xlink:href="#h1hSqM04X8" opacity="1" fill="#ffffff" fill-opacity="1"></use><g><use xlink:href="#h1hSqM04X8" opacity="1" fill-opacity="0" stroke="#000000" stroke-width="1" stroke-opacity="0"></use></g></g></g></svg>